<?xml version="1.0" encoding="utf-8"?>
<svg version="1.1" id="Слой_1" xmlns="http://www.w3.org/2000/svg" xmlns:xlink="http://www.w3.org/1999/xlink" x="0px" y="0px"
	 viewBox="0 0 440.2 95.6" style="enable-background:new 0 0 440.2 95.6;" xml:space="preserve">
<style type="text/css">
	.st0{fill:#FFFFFF;}
</style>
<g>
	<polygon class="st0" points="36.1,95.6 45.3,71.5 27,72.6 	"/>
	<polygon class="st0" points="82.8,69.4 84.5,74.1 67.1,75.1 68.8,70.2 56.3,70.9 51.7,82.9 46.1,83.2 46.2,84.7 51.1,84.4 
		47.1,94.9 60.1,94.2 63.1,85.7 88.4,84.2 91.6,92.3 104.6,91.6 95.4,68.7 	"/>
	<polygon class="st0" points="174.4,71.7 195.8,70.5 195.8,67.7 174.4,68.9 174.4,64.1 162,64.8 162,88.2 211.4,85.3 211.4,73.1 
		174.4,75.2 	"/>
	<polygon class="st0" points="162,35.3 159,35.5 159,62 171.4,61.3 171.4,54.1 202.1,52.4 202.1,40.3 171.4,42 171.4,37.8 
		174.4,37.6 174.4,33.8 191.4,32.8 191.3,30 174.4,31 174.4,29.9 181.1,29.5 181.1,28.1 174.4,28.5 174.4,26.5 211.4,24.5 
		211.4,12.3 162,14.9 	"/>
	<polygon class="st0" points="279.8,31.7 282.8,31.6 282.8,8.5 270.6,9.1 270.6,29.3 267.6,29.5 267.6,55.9 279.8,55.2 	"/>
	<polygon class="st0" points="221.2,84.7 233.6,84 233.6,60.7 221.2,61.5 	"/>
	<polygon class="st0" points="314.7,56.1 333.8,78.1 350,77.1 330.1,55.2 	"/>
	<polygon class="st0" points="291.6,71 282.8,71.5 282.8,57.9 270.6,58.6 270.6,60.8 269,58.7 253.9,59.6 270.4,81.8 282.8,81.1 
		282.8,74.3 291.6,73.8 291.6,80.5 304,79.8 304,59.9 307,56.5 291.6,57.4 	"/>
	<polygon class="st0" points="357.3,76.7 369.7,76 369.7,53 357.3,53.7 	"/>
	<polygon class="st0" points="428,51.8 426.4,49.7 411.3,50.6 427.7,72.5 440.2,71.8 440.2,48.9 428,49.6 	"/>
	<polygon class="st0" points="406.7,24.7 407.6,24.7 391.1,2.6 378.6,3.3 378.6,23.4 375.6,23.5 375.6,37.2 366.7,37.7 366.7,26.9 
		369.7,26.8 369.7,3.8 357.3,4.5 357.3,24.5 354.3,24.7 354.3,50.9 366.7,50.2 366.7,40.5 375.6,40 375.6,49.7 387.9,49 387.9,25.8 
		391.6,25.6 408.3,47.8 423.4,47 	"/>
	<path class="st0" d="M145.9,21.3c-4-3.3-9.4-5-15.5-4.7c-11.2,0.6-21.8,8.9-22.5,21.7l-3,0.2c0.3,4.4,1.8,8.1,4.3,11l-9.3,0.5
		l0.1,2.8l12.1-0.7c0.5,0.3,0.9,0.6,1.4,0.9l-8.6,0.5l0,1.4l11-0.6c0.2,0.1,0.4,0.2,0.7,0.3c5.2,2.1,10.2,1.8,10.8,1.7
		c4.2-0.1,8.9,2.5,10.2,7l12.1-0.7c-0.7-7.4-4.7-13.4-11.6-16.1c-5.1-2.1-10.2-1.8-10.7-1.7c-3.7,0.2-7.4-1.2-9.2-4l1.9-0.1
		c-0.1-0.5-0.1-1-0.1-1.6c0-6.6,4.8-10.2,10.5-10.5c5.4-0.3,10.1,2.1,10.3,8l11.9-0.7c-0.1-4.7-1.6-8.8-4.2-12l6.6-0.4l-0.1-2.7
		L145.9,21.3z"/>
	<polygon class="st0" points="390.9,68.1 390.9,66.6 396,66.3 396,65.3 390.9,65.5 390.9,51.7 378.6,52.5 378.6,75.4 390.9,74.7 
		390.9,70.5 401.8,69.9 401.8,67.5 	"/>
	<polygon class="st0" points="51.6,44.4 55.8,44.1 65,20.2 52,20.9 44.3,41.8 40.2,42 33.1,61.4 27.2,45.7 29.1,45.6 23.9,31.8 
		26.2,31.7 26.2,29 22.9,29.2 22.6,28.3 30.1,27.9 30.1,25.9 21.8,26.3 20.4,22.6 7.4,23.3 10,29.9 0,30.4 0.1,33.2 0.1,33.2 
		9,32.7 11.1,32.6 16.1,32.3 16.2,35.1 12.2,35.3 15.4,43.4 13.6,43.5 24,69.7 42.3,68.7 	"/>
	<polygon class="st0" points="53.3,68.1 65.8,67.4 72.8,47 79.8,66.6 92.4,65.8 83.1,42.6 85,42.5 83.6,39.1 77.8,39.4 77.7,36.6 
		82.5,36.3 82.5,36.3 97.8,35.4 97.7,32.7 81.4,33.6 81.1,32.8 88.6,32.4 88.6,31.2 80.6,31.6 75.8,19.6 67.8,40.5 63.7,40.7 	"/>
	<path class="st0" d="M140.6,66.1c0.2,0.7,0.3,1.5,0.3,2.4c0,0.3,0,0.5-0.1,0.7l4.6-0.3l0,1.5l-11.8,0.7l0,1.2l6.4-0.4
		c-1.6,3.6-5.5,5.9-9.7,6.1c-5.3,0.3-10.3-2.4-10.5-8.3l-12,0.7c0.2,13.4,10.1,19.9,22.5,19.5c11.6-0.7,22.4-8.6,22.4-22.3
		c0-0.8,0-1.6-0.1-2.4L140.6,66.1z"/>
	<polygon class="st0" points="249.3,33.4 250.2,33.4 243.8,24.8 248.9,24.5 248.9,21.8 241.9,22.2 240.4,20.2 256.9,19.3 
		256.8,16.5 238.4,17.6 233.7,11.1 221.2,11.8 221.2,21.7 234.3,21 234.3,23.7 221.2,24.5 221.2,32 218.2,32.2 218.2,58.7 230.6,58 
		230.6,34.5 234.2,34.3 250.9,56.8 266,55.9 	"/>
	<polygon class="st0" points="316.2,40.6 325.2,29.2 330.7,28.9 349.8,4.9 334.4,5.7 317.6,26.7 312.2,27 301,41.1 301,30.6 
		304,30.4 304,14 319.2,13.1 319.2,10.3 304,11.2 304,7.3 291.6,8 291.6,15.7 284.8,16.1 284.9,17.4 284.9,17.5 289.7,17.2 
		291.6,17.1 300,16.6 300.1,19.3 291.6,19.8 291.6,28.2 288.6,28.3 288.6,54.7 304,53.8 308,49.1 311.7,53.3 327.1,52.5 	"/>
	<polygon class="st0" points="428,0.7 428,7.2 411.8,8.1 411.9,10.8 436.9,9.4 436.9,12.1 428,12.7 428,20.6 425,20.8 425,46.9 
		437.2,46.2 437.2,23 440.2,22.9 440.2,0 	"/>
</g>
</svg>
