<?xml version="1.0" encoding="iso-8859-1"?>
<!-- Generator: Adobe Illustrator 21.0.0, SVG Export Plug-In . SVG Version: 6.00 Build 0)  -->
<svg version="1.1" id="Capa_1" xmlns="http://www.w3.org/2000/svg" xmlns:xlink="http://www.w3.org/1999/xlink" x="0px" y="0px"
	 viewBox="0 0 512.002 512.002" style="enable-background:new 0 0 512.002 512.002;" xml:space="preserve">
<rect x="92.49" y="24.607" style="fill:#E8E9EA;" width="327.03" height="352.58"/>
<ellipse style="fill:#D0D1D2;" cx="92.49" cy="200.9" rx="84.986" ry="176.29"/>
<ellipse style="fill:#4A5359;" cx="92.49" cy="200.9" rx="27.25" ry="56.53"/>
<path style="fill:#363F44;" d="M89.721,200.896c0-22.082,6.108-41.194,15.007-50.496c-3.682-3.849-7.838-6.03-12.243-6.03
	c-15.05,0-27.25,25.307-27.25,56.526c0,31.218,12.2,56.526,27.25,56.526c4.404,0,8.561-2.181,12.243-6.03
	C95.829,242.089,89.721,222.978,89.721,200.896z"/>
<path style="fill:#F2F3F3;" d="M504.5,200.896c0-97.362-38.049-176.289-84.986-176.289H92.486
	c46.936,0,84.986,78.927,84.986,176.289v262.909c0,13.028,10.561,23.589,23.589,23.589h279.852
	c13.028,0,23.589-10.561,23.589-23.589V200.896H504.5z"/>
<path style="fill:#4A5359;" d="M340.986,399.031L340.986,399.031c-9.499,0-17.199-7.7-17.199-17.199v-12.899h34.397v12.899
	C358.184,391.331,350.484,399.031,340.986,399.031z"/>
<g>
	<path style="fill:#F27F6F;" d="M410.353,398.719h-11.355c-4.142,0-7.5-3.358-7.5-7.5s3.358-7.5,7.5-7.5h11.355
		c4.142,0,7.5,3.358,7.5,7.5S414.495,398.719,410.353,398.719z"/>
	<path style="fill:#F27F6F;" d="M282.974,398.719h-11.355c-4.142,0-7.5-3.358-7.5-7.5s3.358-7.5,7.5-7.5h11.355
		c4.142,0,7.5,3.358,7.5,7.5S287.116,398.719,282.974,398.719z"/>
</g>
<path d="M92.485,264.921c19.811,0,34.75-27.525,34.75-64.025s-14.939-64.026-34.75-64.026s-34.75,27.525-34.75,64.026
	S72.675,264.921,92.485,264.921z M92.485,151.87c8.053,0,19.75,19.099,19.75,49.026s-11.697,49.025-19.75,49.025
	s-19.75-19.098-19.75-49.025S84.433,151.87,92.485,151.87z"/>
<path d="M486.364,72.984c-17.371-36.033-41.112-55.877-66.85-55.877H92.485c-23.488,0-45.714,16.9-62.583,47.588
	c-1.996,3.63-0.67,8.19,2.959,10.185c3.63,1.996,8.189,0.669,10.185-2.959c14.113-25.674,31.671-39.813,49.438-39.813
	c42.001,0,77.486,77.296,77.486,168.789s-35.484,168.789-77.486,168.789S15,292.389,15,200.896c0-37.564,5.7-73.199,16.482-103.053
	c1.407-3.896-0.61-8.195-4.506-9.602s-8.194,0.611-9.602,4.506C6.008,124.217,0,161.614,0,200.896
	c0,48.193,9.104,93.62,25.636,127.912c17.371,36.033,41.112,55.877,66.85,55.877h77.486v79.12c0,17.143,13.946,31.089,31.088,31.089
	h201.946c4.142,0,7.5-3.358,7.5-7.5s-3.358-7.5-7.5-7.5H201.06c-8.871,0-16.088-7.217-16.088-16.089V200.896
	c0-16.797-1.109-33.255-3.25-49.026h3.25c4.142,0,7.5-3.358,7.5-7.5s-3.358-7.5-7.5-7.5h-5.638
	c-4.332-23.658-11.083-45.393-19.998-63.886c-8.512-17.656-18.553-31.425-29.608-40.877h289.788
	c31.692,0,59.669,44.012,71.496,104.919c-3.41,0.705-5.973,3.725-5.973,7.344c0,4.142,3.358,7.5,7.5,7.5h0.985
	c2.255,15.586,3.478,32.061,3.478,49.026v262.908c0,8.872-7.217,16.089-16.088,16.089h-49.906c-4.142,0-7.5,3.358-7.5,7.5
	s3.358,7.5,7.5,7.5h49.906c17.142,0,31.088-13.946,31.088-31.089V200.896C512,152.703,502.896,107.276,486.364,72.984z
	 M169.971,369.685h-40.26c11.061-9.453,21.11-23.214,29.624-40.877c3.987-8.269,7.537-17.192,10.636-26.639V369.685z"/>
<path d="M461.78,151.87c4.142,0,7.5-3.358,7.5-7.5s-3.358-7.5-7.5-7.5h-15.378c-4.142,0-7.5,3.358-7.5,7.5s3.358,7.5,7.5,7.5H461.78
	z"/>
<path d="M415.646,136.87h-15.378c-4.142,0-7.5,3.358-7.5,7.5s3.358,7.5,7.5,7.5h15.378c4.142,0,7.5-3.358,7.5-7.5
	S419.788,136.87,415.646,136.87z"/>
<path d="M284.741,144.37c0-4.142-3.358-7.5-7.5-7.5h-15.378c-4.142,0-7.5,3.358-7.5,7.5s3.358,7.5,7.5,7.5h15.378
	C281.383,151.87,284.741,148.512,284.741,144.37z"/>
<path d="M377.011,144.37c0-4.142-3.358-7.5-7.5-7.5h-15.378c-4.142,0-7.5,3.358-7.5,7.5s3.358,7.5,7.5,7.5h15.378
	C373.653,151.87,377.011,148.512,377.011,144.37z"/>
<path d="M215.728,136.87c-4.142,0-7.5,3.358-7.5,7.5s3.358,7.5,7.5,7.5h15.378c4.142,0,7.5-3.358,7.5-7.5s-3.358-7.5-7.5-7.5
	H215.728z"/>
<path d="M330.875,144.37c0-4.142-3.358-7.5-7.5-7.5h-15.378c-4.142,0-7.5,3.358-7.5,7.5s3.358,7.5,7.5,7.5h15.378
	C327.518,151.87,330.875,148.512,330.875,144.37z"/>
<path d="M404.675,350.898c-4.142,0-7.5,3.358-7.5,7.5v11.355c0,4.142,3.358,7.5,7.5,7.5s7.5-3.358,7.5-7.5v-11.355
	C412.175,354.257,408.817,350.898,404.675,350.898z"/>
<path d="M277.296,377.253c4.142,0,7.5-3.358,7.5-7.5v-11.355c0-4.142-3.358-7.5-7.5-7.5s-7.5,3.358-7.5,7.5v11.355
	C269.796,373.896,273.154,377.253,277.296,377.253z"/>
<path d="M340.985,406.531c13.619,0,24.699-11.08,24.699-24.699v-12.899c0-4.142-3.358-7.5-7.5-7.5h-34.397
	c-4.142,0-7.5,3.358-7.5,7.5v12.899C316.287,395.451,327.367,406.531,340.985,406.531z M331.287,376.434h19.397v5.399
	c0,5.348-4.351,9.699-9.699,9.699s-9.698-4.351-9.698-9.699V376.434z"/>
<g>
</g>
<g>
</g>
<g>
</g>
<g>
</g>
<g>
</g>
<g>
</g>
<g>
</g>
<g>
</g>
<g>
</g>
<g>
</g>
<g>
</g>
<g>
</g>
<g>
</g>
<g>
</g>
<g>
</g>
</svg>
