<svg version="1.1" viewBox="0 0 65 75.4" style="enable-background:new 0 0 65 75.4;" xml:space="preserve">
	<polygon class="st0" points="36.1,75.4 45.3,51.4 27,52.4" fill="currentColor"/>
	<polygon class="st0" points="52,0.7 44.3,21.6 40.2,21.9 33.1,41.2 27.2,25.6 29.1,25.5 23.9,11.7 26.2,11.5 26.2,8.8 22.9,9 
		22.6,8.1 30.1,7.7 30.1,5.7 21.8,6.2 20.4,2.4 7.4,3.1 10,9.7 0,10.3 0.1,13.1 0.1,13.1 9,12.6 11.1,12.4 16.1,12.2 16.2,14.9 
		12.2,15.1 15.4,23.2 13.6,23.3 24,49.6 42.3,48.5 51.6,24.2 55.8,24 65,0" fill="currentColor"/>
</svg>
