<svg id="Layer_1" enable-background="new 0 0 512 512" height="512" viewBox="0 0 512 512" width="512" xmlns="http://www.w3.org/2000/svg"><g><path d="m435 92h-44c-16.569 0-30-13.431-30-30 0-2.209 1.791-4 4-4h96c2.209 0 4 1.791 4 4 0 16.569-13.431 30-30 30z" fill="#43809f"/><path d="m461 58h-30c2.209 0 4 1.791 4 4 0 16.569-13.431 30-30 30h30c16.569 0 30-13.431 30-30 0-2.209-1.791-4-4-4z" fill="#3a7190"/><path d="m427.365 58h-30l2.866-30h24.269z" fill="#e4e4e4"/><path d="m489.5 490h-467c-8.284 0-15-6.716-15-15 0-8.284 6.716-15 15-15h467c8.284 0 15 6.716 15 15 0 8.284-6.716 15-15 15z" fill="#7be492"/><path d="m489.5 460h-30c8.284 0 15 6.716 15 15s-6.716 15-15 15h30c8.284 0 15-6.716 15-15s-6.716-15-15-15z" fill="#45d987"/><path d="m70 59.5h80v116h-80z" fill="#d67b42"/><path d="m120 59.5h30v116h-30z" fill="#be652b"/><path d="m64 29.5h92v30h-92z" fill="#f75632"/><path d="m126 29.5h30v30h-30z" fill="#e33629"/><path d="m458 460h-404v-268.891l202-155.109 202 155.097z" fill="#f3f3f3"/><g><path d="m428 168.063v291.937h30v-268.903z" fill="#e4e4e4"/></g><path d="m84 417.5v-196.99l344-.01v197z" fill="#bbf7ff"/><path d="m398 220.5h30v197h-30z" fill="#8bf0ff"/><path d="m491.433 198.985-226.602-173.986c-5.208-3.999-12.454-3.999-17.662.001l-226.602 174c-6.352 4.877-7.547 13.98-2.669 20.332 2.855 3.718 7.158 5.668 11.511 5.668 3.081 0 6.188-.979 8.82-3l217.771-167.219 217.771 167.206c6.352 4.877 15.455 3.683 20.332-2.67 4.877-6.352 3.681-15.455-2.67-20.332z" fill="#f75632"/><path d="m387.5 417.5h-60v-58c0-16.569 13.431-30 30-30 16.569 0 30 13.431 30 30z" fill="#ffca28"/><path d="m357.5 329.5c-5.466 0-10.586 1.469-15 4.023 8.964 5.188 15 14.874 15 25.977v58h30v-58c0-16.569-13.431-30-30-30z" fill="#ffae08"/><path d="m357.5 328c-16.569 0-30-13.431-30-30v-30h60v30c0 16.569-13.431 30-30 30z" fill="#ffc39c"/><path d="m387.5 268.18v15.253c0 9.978-8.089 18.067-18.067 18.067-3.829 0-6.933-3.104-6.933-6.933v-14.567h-23.18c-6.473 0-11.777-5.211-11.82-11.684-.037-5.634 2.23-10.726 5.91-14.406 3.65-3.65 8.69-5.91 14.27-5.91h19.64c11.145 0 20.18 9.035 20.18 20.18z" fill="#bf6724"/><path d="m428 417.5h-40.5v-33.75c0-11.184 9.066-20.25 20.25-20.25 11.184 0 20.25 9.066 20.25 20.25z" fill="#f75632"/><path d="m123 269.5h30v148h-30z" fill="#43809f"/><circle cx="256" cy="148" fill="#bbf7ff" r="47"/><g><path d="m435.5 417.499v-197.003c0-1.989-.79-3.897-2.196-5.303-1.407-1.407-3.314-2.197-5.304-2.197l-344 .01c-4.142 0-7.5 3.358-7.5 7.5v196.993c0 4.142 3.358 7.5 7.5 7.5h344c4.143 0 7.5-3.358 7.5-7.5zm-305-7.5v-26.231c0-4.142-3.358-7.5-7.5-7.5s-7.5 3.358-7.5 7.5v26.231h-24v-181.993l329-.01v131.117c-3.821-1.986-8.155-3.115-12.75-3.115-4.599 0-8.937 1.131-12.76 3.12-.126-12.559-6.455-23.654-16.065-30.37 9.708-6.784 16.074-18.035 16.074-30.75v-30c0-.061-.008-.12-.009-.18-.194-15.097-12.529-27.32-27.671-27.32h-19.639c-7.396 0-14.347 2.879-19.572 8.107-5.142 5.141-7.999 11.936-8.097 19.19-.002.068-.01.135-.01.204v30c0 12.716 6.367 23.966 16.074 30.75-9.708 6.784-16.074 18.035-16.074 30.75v50.501h-159.501v-140.504c0-4.142-3.358-7.5-7.5-7.5h-30c-4.142 0-7.5 3.358-7.5 7.5v82.373c0 4.142 3.358 7.5 7.5 7.5s7.5-3.358 7.5-7.5v-74.873h15v133.002h-15zm249.497-141.874c.001.048.001.097.003.145v15.159c0 5.637-4.436 10.257-10 10.552v-13.985c0-4.142-3.357-7.5-7.5-7.5h-23.18c-2.367 0-4.305-1.899-4.32-4.233-.022-3.422 1.297-6.637 3.714-9.054 2.394-2.395 5.578-3.713 8.966-3.713h19.641c6.973 0 12.648 5.661 12.676 12.629zm-44.997 18.866c1.392.32 2.834.506 4.32.506h15.68v7.068c0 7.958 6.475 14.433 14.433 14.433 2.952 0 5.786-.509 8.427-1.434-3.602 7.635-11.372 12.934-20.359 12.934-12.406 0-22.5-10.093-22.5-22.5v-11.007zm0 72.507c0-12.407 10.094-22.5 22.5-22.5s22.5 10.093 22.5 22.5v50.501h-45zm85.5 50.501h-25.5v-26.25c0-7.03 5.72-12.75 12.75-12.75s12.75 5.72 12.75 12.75z"/><path d="m195.022 329.497c0 4.142 3.358 7.5 7.5 7.5h16c4.142 0 7.5-3.358 7.5-7.5s-3.358-7.5-7.5-7.5h-16c-4.142 0-7.5 3.358-7.5 7.5z"/><path d="m192.522 312.326c1.658 0 3.326-.547 4.714-1.671l12.436-10.067c3.22-2.606 3.717-7.329 1.111-10.549s-7.329-3.717-10.548-1.111l-12.436 10.067c-3.22 2.606-3.717 7.329-1.111 10.548 1.483 1.832 3.649 2.783 5.834 2.783z"/><path d="m187.799 359.999 12.436 10.067c1.389 1.124 3.057 1.671 4.714 1.671 2.185 0 4.352-.951 5.834-2.782 2.606-3.219 2.109-7.942-1.111-10.548l-12.436-10.067c-3.219-2.606-7.942-2.109-10.548 1.111-2.605 3.219-2.108 7.942 1.111 10.548z"/><path d="m256 202.495c30.052 0 54.5-24.449 54.5-54.501s-24.448-54.5-54.5-54.5c-30.051 0-54.5 24.449-54.5 54.501s24.449 54.5 54.5 54.5zm-38.657-46.381h31.157v30.658c-15.568-3.006-27.909-15.176-31.157-30.658zm46.157 30.658v-30.658h31.157c-3.248 15.482-15.589 27.652-31.157 30.658zm31.388-45.658h-31.388v-31.897c15.981 3.085 28.552 15.83 31.388 31.897zm-46.388-31.897v31.897h-31.388c2.836-16.067 15.407-28.812 31.388-31.897z"/><path d="m489.5 452.499h-24v-227.412l3.704 2.844c4.66 3.58 10.435 5.127 16.263 4.364 5.827-.765 11.007-3.754 14.586-8.416 7.387-9.622 5.569-23.46-4.053-30.848l-75.5-57.97v-35.567h14.5c20.678 0 37.5-16.823 37.5-37.501 0-6.341-5.159-11.5-11.5-11.5h-26.817l-2.217-23.213c-.367-3.849-3.6-6.787-7.466-6.787h-24.27c-3.866 0-7.099 2.939-7.466 6.787l-2.217 23.213h-25.547c-6.341 0-11.5 5.159-11.5 11.5 0 20.678 16.822 37.501 37.5 37.501h14.5v24.051l-85.636-65.753c-3.287-2.523-7.993-1.903-10.517 1.381-2.522 3.285-1.903 7.994 1.382 10.516l176.136 135.24c3.062 2.351 3.64 6.754 1.289 9.816-1.139 1.483-2.786 2.434-4.641 2.677-1.857.246-3.692-.25-5.175-1.389l-217.77-167.208c-2.695-2.068-6.441-2.069-9.136 0l-217.77 167.222c-1.56 1.197-3.174 1.449-4.253 1.449-2.199 0-4.227-.998-5.563-2.737-1.139-1.483-1.632-3.321-1.388-5.174.243-1.854 1.194-3.502 2.677-4.641l226.602-174.003c2.511-1.928 6.016-1.928 8.526 0l25.108 19.279c3.287 2.523 7.993 1.904 10.517-1.381 2.522-3.285 1.903-7.994-1.382-10.516l-25.107-19.278c-7.889-6.058-18.908-6.058-26.797 0l-85.102 65.346v-17.548c3.423-.695 6-3.721 6-7.349v-30c0-4.142-3.358-7.5-7.5-7.5h-92c-4.142 0-7.5 3.358-7.5 7.5v30c0 3.628 2.577 6.654 6 7.349v90.497l-46.5 35.706c-4.661 3.579-7.649 8.759-8.415 14.585-.765 5.827.785 11.603 4.364 16.263 4.198 5.466 10.562 8.602 17.46 8.602 4.88 0 9.51-1.574 13.388-4.551l3.703-2.844v227.398h-24c-12.407 0-22.5 10.094-22.5 22.501s10.093 22.5 22.5 22.5h467c12.406 0 22.5-10.093 22.5-22.5s-10.094-22.501-22.5-22.501zm-82.452-417.006h10.635l1.433 15h-13.5zm-38.277 30h88.457c-1.687 10.75-11.013 19-22.229 19h-44c-11.215.001-20.541-8.25-22.228-19zm-226.271 17.501h-65v-16h65zm-65 15h62.285l-26.046 20h-36.239zm-6-61.001h77v15h-77zm6 96.001h16.704l-16.704 12.827zm412 349.506h-467c-4.136 0-7.5-3.364-7.5-7.5s3.364-7.5 7.5-7.5h361.68c4.143 0 7.5-3.358 7.5-7.5s-3.357-7.5-7.5-7.5h-322.68v-238.917l194.5-149.352 194.5 149.339v238.929h-33.705c-4.143 0-7.5 3.358-7.5 7.5s3.357 7.5 7.5 7.5h72.705c4.136 0 7.5 3.364 7.5 7.5s-3.364 7.501-7.5 7.501z"/></g></g></svg>