<svg id="Capa_1" enable-background="new 0 0 512 512" height="512" viewBox="0 0 512 512" width="512" xmlns="http://www.w3.org/2000/svg"><g><path d="m42.77 397.7c-4.18-6.28 13.592-22.08 9.962-28.73-2.29-4.2-26.142.85-28.192-3.49l-.01-.01c-5.91-12.45-10.83-25.45-14.68-38.91-3.765-13.155.517-28.977-1.1-42.905-.539-4.643-7.972-7.09-8.26-11.805-.33-5.24-.49-10.53-.49-15.85 0-141.38 114.62-256 256-256 124.14 0 227.65 88.37 251.04 205.63 3.25 16.28-14.89 33.13-14.89 50.37 0 14.62.049 28.96-2.321 42.91-1.58 9.4-1.768 15.481-4.358 24.501-2.78 9.73-8.02 11.747-11.89 20.967-3.61 8.61 10.889 27.592 6.389 35.682" fill="#e8eeff"/><path d="m424.78 329.36v103.945c-9.35 8.22-19.32 15.76-29.82 22.56-.18.13-.37.25-.56.37-6.27 4.04-12.73 22.975-19.37 26.465-6.27 3.3-12.69 6.34-19.25 9.12-6.51 2.76-13.16-11.339-19.93-9.12-25.13 8.24-51.97-4.701-79.85-4.701-5.92 0-11.79 21.376-17.61 20.976-10.38-.7-20.6-.275-30.6-2.176-.19-.04-.37-.07-.56-.11-6.55-1.26-13.01 7.9-19.37 6.14-6.52-1.8-12.95-3.85-19.25-6.14-6.78-2.46-11.75-26.941-18.25-29.941-23.48-10.86-46.72-11.658-65.71-28.778v-108.61z" fill="#132866"/><path d="m188.89 162.212h-52.951c-31.747 0-57.484 25.736-57.484 57.484v99.952h167.918v-99.952c0-31.748-25.736-57.484-57.483-57.484z" fill="#ef3d54"/><path d="m155.314 162.212c-31.75 0-57.49 25.74-57.49 57.49v99.95h-19.37v-99.95c0-31.75 25.74-57.49 57.48-57.49z" fill="#ca0051"/><path d="m376.063 162.212h-52.951c-31.747 0-57.484 25.736-57.484 57.484v99.952h167.918v-99.952c0-31.748-25.736-57.484-57.483-57.484z" fill="#ef3d54"/><path d="m342.487 162.212c-31.75 0-57.49 25.74-57.49 57.49v99.95h-19.37v-99.95c0-31.75 25.74-57.49 57.48-57.49z" fill="#ca0051"/><path d="m182.605 199.578h-40.385c-24.213 0-43.842 19.629-43.842 43.842v76.232h128.069v-76.232c0-24.214-19.629-43.842-43.842-43.842z" fill="#51aaf7"/><path d="m172.818 199.582c-24.22 0-43.84 19.62-43.84 43.84v76.23h-30.6v-76.23c0-24.22 19.63-43.84 43.84-43.84z" fill="#378ae5"/><path d="m183.63 7.24h-42.432c-34.76 0-62.939 28.179-62.939 62.939v63.987h168.311v-63.986c-.001-34.761-28.18-62.94-62.94-62.94z" fill="#2a428b"/><path d="m178.132 7.24c-34.761 0-62.939 28.182-62.939 62.943v63.985h-36.934v-63.984c0-34.761 28.178-62.943 62.939-62.943h36.934z" fill="#132866"/><path d="m141.433 208.321v-31.742h41.96v31.743c0 3.519-1.682 6.826-4.527 8.898-9.805 7.143-23.098 7.143-32.903.002l-.003-.002c-2.844-2.073-4.527-5.38-4.527-8.899z" fill="#f1c0a6"/><path d="m156.515 221.95c-3.73-.807-7.329-2.384-10.553-4.73h-.005c-2.844-2.074-4.523-5.382-4.523-8.901v-31.739h14.659v41.448c-.001 1.341.145 2.66.422 3.922z" fill="#e6ac94"/><path d="m104.484 134.167c0 9.618-7.026 17.593-16.226 19.073-1.006.163-2.04.248-3.095.248-10.673 0-19.321-8.648-19.321-19.321s8.648-19.321 19.321-19.321c1.055 0 2.089.085 3.095.248 9.2 1.48 16.226 9.455 16.226 19.073z" fill="#f1c0a6"/><path d="m104.484 134.167c0 9.618-7.026 17.593-16.226 19.073-1.671-6.077-2.564-12.472-2.564-19.073s.892-12.996 2.564-19.073c9.2 1.48 16.226 9.455 16.226 19.073z" fill="#e6ac94"/><circle cx="85.163" cy="134.167" fill="#e6ac94" r="6.905"/><path d="m220.343 134.167c0 9.618 7.026 17.593 16.226 19.073 1.006.163 2.04.248 3.095.248 10.673 0 19.321-8.648 19.321-19.321s-8.648-19.321-19.321-19.321c-1.055 0-2.089.085-3.095.248-9.2 1.48-16.226 9.455-16.226 19.073z" fill="#f1c0a6"/><path d="m220.343 134.167c0 9.618 7.026 17.593 16.226 19.073 1.671-6.077 2.564-12.472 2.564-19.073s-.892-12.996-2.564-19.073c-9.2 1.48-16.226 9.455-16.226 19.073z" fill="#e6ac94"/><circle cx="239.664" cy="134.167" fill="#e6ac94" r="6.905"/><path d="m235.003 107.616v16.395c0 36.127-26.39 66.092-60.94 71.657-3.791.62-7.681.934-11.651.934-40.092 0-72.591-32.495-72.591-72.591v-21.529c8.93-.77 31.289-4.824 56.571-25.517.001 0 14.158 30.651 88.611 30.651z" fill="#f1c0a6"/><path d="m175.199 195.476c-.375.066-.755.131-1.136.192-3.791.62-7.681.934-11.651.934-40.092 0-72.591-32.495-72.591-72.591v-21.529c4.974-.432 14.11-1.877 25.597-6.649v28.178c0 35.727 25.799 65.416 59.781 71.465z" fill="#e6ac94"/><path d="m162.414 162.216c-6.079 0-12.157-1.523-17.698-4.569-1.563-.859-2.133-2.823-1.274-4.386s2.823-2.133 4.385-1.274c9.134 5.021 20.04 5.021 29.173 0 1.562-.859 3.526-.289 4.385 1.274s.289 3.526-1.274 4.386c-5.541 3.046-11.619 4.569-17.697 4.569z" fill="#d49985"/><path d="m170.648 140.52h-16.469c-1.962 0-3.552-1.59-3.552-3.552 0-1.962 1.59-3.552 3.552-3.552h16.469c1.962 0 3.552 1.59 3.552 3.552 0 1.962-1.59 3.552-3.552 3.552z" fill="#e6ac94"/><path d="m174.307 120.562c0 8.054 6.529 14.584 14.584 14.584s14.584-6.529 14.584-14.584z" fill="#e6ac94"/><circle cx="188.89" cy="120.562" fill="#343a3e" r="10.458"/><circle cx="193.249" cy="118.717" fill="#fff" r="4.481"/><path d="m121.353 120.562c0 8.054 6.529 14.584 14.584 14.584s14.584-6.529 14.584-14.584z" fill="#e6ac94"/><circle cx="135.937" cy="120.562" fill="#343a3e" r="10.458"/><path d="m138.383 130.731c-.784.192-1.605.291-2.445.291-5.776 0-10.459-4.683-10.459-10.459s4.683-10.459 10.459-10.459c.84 0 1.661.099 2.445.291-4.599 1.098-8.01 5.237-8.01 10.168s3.411 9.07 8.01 10.168z" fill="#1f2426"/><path d="m191.336 130.731c-.784.192-1.605.291-2.445.291-5.776 0-10.459-4.683-10.459-10.459s4.683-10.459 10.459-10.459c.84 0 1.661.099 2.445.291-4.599 1.098-8.01 5.237-8.01 10.168s3.412 9.07 8.01 10.168z" fill="#1f2426"/><circle cx="140.295" cy="118.717" fill="#fff" r="4.481"/><path d="m369.778 199.578h-40.385c-24.213 0-43.842 19.629-43.842 43.842v76.232h128.069v-76.232c0-24.214-19.629-43.842-43.842-43.842z" fill="#e8eeff"/><path d="m359.991 199.582c-24.22 0-43.84 19.62-43.84 43.84v76.23h-30.6v-76.23c0-24.22 19.63-43.84 43.84-43.84z" fill="#d2dbf9"/><path d="m370.803 7.24h-42.433c-34.76 0-62.939 28.179-62.939 62.939v63.987h168.311v-63.986c0-34.761-28.179-62.94-62.939-62.94z" fill="#fadc42"/><path d="m365.305 7.24c-34.761 0-62.939 28.182-62.939 62.943v63.985h-36.934v-63.984c0-34.761 28.178-62.943 62.939-62.943h36.934z" fill="#f6b231"/><path d="m328.606 208.321v-31.742h41.96v31.743c0 3.519-1.682 6.826-4.527 8.898-9.805 7.143-23.098 7.143-32.903.002l-.003-.002c-2.844-2.073-4.527-5.38-4.527-8.899z" fill="#f1c0a6"/><path d="m343.688 221.95c-3.73-.807-7.329-2.384-10.553-4.73h-.005c-2.844-2.074-4.523-5.382-4.523-8.901v-31.739h14.659v41.448c-.001 1.341.145 2.66.422 3.922z" fill="#e6ac94"/><path d="m291.657 134.167c0 9.618-7.026 17.593-16.226 19.073-1.006.163-2.04.248-3.095.248-10.673 0-19.321-8.648-19.321-19.321s8.648-19.321 19.321-19.321c1.055 0 2.089.085 3.095.248 9.2 1.48 16.226 9.455 16.226 19.073z" fill="#f1c0a6"/><path d="m291.657 134.167c0 9.618-7.026 17.593-16.226 19.073-1.671-6.077-2.564-12.472-2.564-19.073s.892-12.996 2.564-19.073c9.2 1.48 16.226 9.455 16.226 19.073z" fill="#e6ac94"/><circle cx="272.336" cy="134.167" fill="#e6ac94" r="6.905"/><path d="m407.516 134.167c0 9.618 7.026 17.593 16.226 19.073 1.006.163 2.04.248 3.095.248 10.673 0 19.321-8.648 19.321-19.321s-8.648-19.321-19.321-19.321c-1.055 0-2.089.085-3.095.248-9.2 1.48-16.226 9.455-16.226 19.073z" fill="#f1c0a6"/><path d="m407.516 134.167c0 9.618 7.026 17.593 16.226 19.073 1.671-6.077 2.564-12.472 2.564-19.073s-.892-12.996-2.564-19.073c-9.2 1.48-16.226 9.455-16.226 19.073z" fill="#e6ac94"/><circle cx="426.837" cy="134.167" fill="#e6ac94" r="6.905"/><path d="m422.176 107.616v16.395c0 36.127-26.39 66.092-60.94 71.657-3.791.62-7.681.934-11.651.934-40.092 0-72.591-32.495-72.591-72.591v-21.529c8.93-.77 31.289-4.824 56.571-25.517.001 0 14.158 30.651 88.611 30.651z" fill="#f1c0a6"/><path d="m362.372 195.476c-.375.066-.755.131-1.136.192-3.791.62-7.681.934-11.651.934-40.092 0-72.591-32.495-72.591-72.591v-21.529c4.974-.432 14.11-1.877 25.597-6.649v28.178c0 35.727 25.799 65.416 59.781 71.465z" fill="#e6ac94"/><path d="m349.587 162.216c-6.078 0-12.157-1.523-17.698-4.569-1.563-.859-2.133-2.823-1.274-4.386s2.823-2.133 4.385-1.274c9.134 5.021 20.04 5.021 29.173 0 1.562-.859 3.526-.289 4.385 1.274s.289 3.526-1.274 4.386c-5.541 3.046-11.619 4.569-17.697 4.569z" fill="#d49985"/><path d="m357.821 140.52h-16.469c-1.962 0-3.552-1.59-3.552-3.552 0-1.962 1.59-3.552 3.552-3.552h16.469c1.962 0 3.552 1.59 3.552 3.552 0 1.962-1.59 3.552-3.552 3.552z" fill="#e6ac94"/><path d="m361.48 120.562c0 8.054 6.529 14.584 14.584 14.584 8.054 0 14.584-6.529 14.584-14.584z" fill="#e6ac94"/><circle cx="376.063" cy="120.562" fill="#343a3e" r="10.458"/><circle cx="380.422" cy="118.717" fill="#fff" r="4.481"/><path d="m308.526 120.562c0 8.054 6.529 14.584 14.584 14.584 8.054 0 14.584-6.529 14.584-14.584z" fill="#e6ac94"/><circle cx="323.11" cy="120.562" fill="#343a3e" r="10.458"/><path d="m325.556 130.731c-.784.192-1.605.291-2.445.291-5.776 0-10.459-4.683-10.459-10.459s4.683-10.459 10.459-10.459c.84 0 1.661.099 2.445.291-4.599 1.098-8.01 5.237-8.01 10.168s3.411 9.07 8.01 10.168z" fill="#1f2426"/><path d="m378.509 130.731c-.784.192-1.605.291-2.445.291-5.776 0-10.459-4.683-10.459-10.459s4.683-10.459 10.459-10.459c.84 0 1.661.099 2.445.291-4.599 1.098-8.01 5.237-8.01 10.168s3.412 9.07 8.01 10.168z" fill="#1f2426"/><circle cx="327.468" cy="118.717" fill="#fff" r="4.481"/><path d="m168.61 412.09v84.6c-6.78-2.46-13.43-5.2-19.93-8.2-36.27-16.78-55.794-48.02-80.484-78.88-4.67-5.84-21.276-5.67-25.426-11.91-6.82-10.25-12.93-21.01-18.24-32.23 9.46-6.83 21.08-10.86 33.64-10.86h52.95c31.75 0 57.49 25.73 57.49 57.48z" fill="#ef3d54"/><path d="m77.55 354.61c-19.11 0-36.05 9.33-46.5 23.68-2.29-4.2-4.46-8.47-6.51-12.81 9.45-6.84 21.07-10.87 33.63-10.87z" fill="#ca0051"/><path d="m148.68 435.81v52.68c-43.14-19.96-79.8-51.57-105.91-90.79 6.39-3.65 13.79-5.73 21.68-5.73h40.39c24.21 0 43.84 19.63 43.84 43.84z" fill="#e8eeff"/><path d="m95.05 391.97c-17.02 0-31.77 9.69-39.03 23.86-4.67-5.84-9.1-11.89-13.25-18.13 6.39-3.65 13.79-5.73 21.68-5.73z" fill="#d2dbf9"/><path d="m168.8 262.57v63.99l-153.536-10.971-10.091-8.145c-2.365-11.599-3.945-23.483-4.683-35.594v-9.28c0-34.76 28.18-62.94 62.94-62.94h42.43c34.76 0 62.94 28.18 62.94 62.94z" fill="#2a428b"/><path d="m100.37 199.63c-34.76 0-62.94 28.18-62.94 62.94v63.99l-24.885-8.679s-6.287-9.261-7.372-10.437c-2.365-11.599-3.945-23.483-4.683-35.594v-9.28c0-34.76 28.18-62.94 62.94-62.94z" fill="#132866"/><path d="m63.668 400.711v-31.742h41.96v31.743c0 3.519-1.682 6.826-4.527 8.898-9.805 7.143-23.098 7.143-32.903.002l-.003-.002c-2.844-2.072-4.527-5.379-4.527-8.899z" fill="#f1c0a6"/><path d="m78.75 414.341c-3.73-.807-7.329-2.384-10.553-4.73h-.005c-2.844-2.074-4.523-5.382-4.523-8.901v-31.74h14.659v41.448c-.001 1.342.145 2.66.422 3.923z" fill="#e6ac94"/><path d="m142.578 326.557c0 9.618 7.026 17.593 16.226 19.073 1.006.163 2.04.248 3.095.248 10.673 0 19.321-8.648 19.321-19.321s-8.648-19.321-19.321-19.321c-1.055 0-2.089.085-3.095.248-9.2 1.481-16.226 9.455-16.226 19.073z" fill="#f1c0a6"/><path d="m142.578 326.557c0 9.618 7.026 17.593 16.226 19.073 1.671-6.077 2.564-12.472 2.564-19.073s-.892-12.996-2.564-19.073c-9.2 1.481-16.226 9.455-16.226 19.073z" fill="#e6ac94"/><circle cx="161.899" cy="326.557" fill="#e6ac94" r="6.905"/><path d="m157.238 300.006v16.395c0 36.127-26.39 66.092-60.94 71.657-3.791.62-7.681.934-11.651.934-40.092 0-72.591-32.495-72.591-72.591v-21.529c8.93-.77 31.289-4.824 56.571-25.517 0 .001 14.157 30.651 88.611 30.651z" fill="#f1c0a6"/><path d="m84.649 354.607c-6.078 0-12.157-1.523-17.698-4.569-1.563-.859-2.133-2.823-1.274-4.385.859-1.563 2.823-2.133 4.385-1.274 9.134 5.021 20.04 5.021 29.173 0 1.562-.859 3.526-.289 4.385 1.274s.289 3.526-1.274 4.385c-5.541 3.046-11.619 4.569-17.697 4.569z" fill="#d49985"/><path d="m92.883 332.911h-16.469c-1.962 0-3.552-1.59-3.552-3.552 0-1.962 1.59-3.552 3.552-3.552h16.469c1.962 0 3.552 1.59 3.552 3.552 0 1.962-1.59 3.552-3.552 3.552z" fill="#e6ac94"/><path d="m96.541 312.953c0 8.054 6.529 14.584 14.584 14.584s14.584-6.529 14.584-14.584z" fill="#e6ac94"/><circle cx="111.125" cy="312.953" fill="#343a3e" r="10.458"/><circle cx="115.483" cy="311.107" fill="#fff" r="4.481"/><path d="m43.588 312.953c0 8.054 6.529 14.584 14.584 14.584s14.584-6.529 14.584-14.584z" fill="#e6ac94"/><circle cx="58.172" cy="312.953" fill="#343a3e" r="10.458"/><path d="m60.617 323.121c-.784.192-1.605.291-2.445.291-5.776 0-10.459-4.683-10.459-10.459s4.683-10.459 10.459-10.459c.84 0 1.661.099 2.445.291-4.599 1.098-8.01 5.237-8.01 10.168.001 4.931 3.412 9.07 8.01 10.168z" fill="#1f2426"/><path d="m113.571 323.121c-.784.192-1.605.291-2.445.291-5.776 0-10.459-4.683-10.459-10.459s4.683-10.459 10.459-10.459c.84 0 1.661.099 2.445.291-4.599 1.098-8.01 5.237-8.01 10.168s3.411 9.07 8.01 10.168z" fill="#1f2426"/><circle cx="62.53" cy="311.107" fill="#fff" r="4.481"/><path d="m355.78 412.09v79.73c-6.51 2.76-13.16 5.26-19.93 7.48-25.13 8.24-51.97-21.301-79.85-21.301-16.48 0-32.6 32.441-48.21 29.47-.19-.04-.37-.07-.56-.11-6.55-1.26-13.01-2.77-19.37-4.53v-90.74c0-31.75 25.74-57.48 57.48-57.48h52.96c31.74.001 57.48 25.731 57.48 57.481z" fill="#ef3d54"/><path d="m264.72 354.61c-31.75 0-57.49 25.74-57.49 57.49v95.26c-6.55-1.26-13.01-2.77-19.37-4.53v-90.73c0-31.75 25.74-57.49 57.48-57.49z" fill="#ca0051"/><path d="m335.85 435.81v63.49c-25.13 8.24-51.97 12.7-79.85 12.7-16.48 0-32.6-1.56-48.21-4.53v-71.66c0-24.21 19.62-43.84 43.84-43.84h40.38c24.22 0 43.84 19.63 43.84 43.84z" fill="#51aaf7"/><path d="m282.23 391.97c-24.22 0-43.84 19.62-43.84 43.84v75.59c-10.38-.7-20.6-2.03-30.6-3.93v-71.66c0-24.22 19.63-43.84 43.84-43.84z" fill="#378ae5"/><path d="m293.038 199.631h-42.432c-34.76 0-62.939 28.179-62.939 62.939v63.987h168.311v-63.987c-.001-34.76-28.18-62.939-62.94-62.939z" fill="#fadc42"/><path d="m287.54 199.631c-34.761 0-62.939 28.182-62.939 62.943v63.985h-36.934v-63.985c0-34.761 28.178-62.943 62.939-62.943z" fill="#f6b231"/><path d="m250.841 400.711v-31.742h41.96v31.743c0 3.519-1.682 6.826-4.527 8.898-9.805 7.143-23.098 7.143-32.903.002l-.003-.002c-2.844-2.072-4.527-5.379-4.527-8.899z" fill="#f1c0a6"/><path d="m265.923 414.341c-3.73-.807-7.329-2.384-10.553-4.73h-.005c-2.844-2.074-4.523-5.382-4.523-8.901v-31.74h14.658v41.448c0 1.342.146 2.66.423 3.923z" fill="#e6ac94"/><path d="m213.892 326.557c0 9.618-7.026 17.593-16.226 19.073-1.006.163-2.04.248-3.095.248-10.673 0-19.321-8.648-19.321-19.321s8.648-19.321 19.321-19.321c1.055 0 2.089.085 3.095.248 9.2 1.481 16.226 9.455 16.226 19.073z" fill="#f1c0a6"/><path d="m213.892 326.557c0 9.618-7.026 17.593-16.226 19.073-1.671-6.077-2.564-12.472-2.564-19.073s.892-12.996 2.564-19.073c9.2 1.481 16.226 9.455 16.226 19.073z" fill="#e6ac94"/><circle cx="194.571" cy="326.557" fill="#e6ac94" r="6.905"/><path d="m329.751 326.557c0 9.618 7.026 17.593 16.226 19.073 1.006.163 2.04.248 3.095.248 10.673 0 19.321-8.648 19.321-19.321s-8.648-19.321-19.321-19.321c-1.055 0-2.089.085-3.095.248-9.2 1.481-16.226 9.455-16.226 19.073z" fill="#f1c0a6"/><path d="m329.751 326.557c0 9.618 7.026 17.593 16.226 19.073 1.671-6.077 2.564-12.472 2.564-19.073s-.892-12.996-2.564-19.073c-9.2 1.481-16.226 9.455-16.226 19.073z" fill="#e6ac94"/><circle cx="349.072" cy="326.557" fill="#e6ac94" r="6.905"/><path d="m344.411 300.006v16.395c0 36.127-26.39 66.092-60.94 71.657-3.791.62-7.681.934-11.651.934-40.092 0-72.591-32.495-72.591-72.591v-21.529c8.93-.77 31.289-4.824 56.571-25.517 0 .001 14.157 30.651 88.611 30.651z" fill="#f1c0a6"/><path d="m284.607 387.866c-.375.066-.755.131-1.136.192-3.791.62-7.681.934-11.651.934-40.092 0-72.591-32.495-72.591-72.591v-21.529c4.974-.432 14.11-1.877 25.597-6.649v28.178c0 35.728 25.799 65.417 59.781 71.465z" fill="#e6ac94"/><path d="m271.822 354.607c-6.078 0-12.157-1.523-17.698-4.569-1.563-.859-2.133-2.823-1.274-4.385.859-1.563 2.823-2.133 4.385-1.274 9.134 5.021 20.04 5.021 29.173 0 1.562-.859 3.526-.289 4.385 1.274s.289 3.526-1.274 4.385c-5.541 3.046-11.619 4.569-17.697 4.569z" fill="#d49985"/><path d="m280.056 332.911h-16.469c-1.962 0-3.552-1.59-3.552-3.552 0-1.962 1.59-3.552 3.552-3.552h16.469c1.962 0 3.552 1.59 3.552 3.552 0 1.962-1.59 3.552-3.552 3.552z" fill="#e6ac94"/><path d="m283.714 312.953c0 8.054 6.529 14.584 14.584 14.584 8.054 0 14.584-6.529 14.584-14.584z" fill="#e6ac94"/><circle cx="298.298" cy="312.953" fill="#343a3e" r="10.458"/><circle cx="302.656" cy="311.107" fill="#fff" r="4.481"/><path d="m230.761 312.953c0 8.054 6.529 14.584 14.584 14.584s14.584-6.529 14.584-14.584z" fill="#e6ac94"/><circle cx="245.345" cy="312.953" fill="#343a3e" r="10.458"/><path d="m247.79 323.121c-.784.192-1.605.291-2.445.291-5.776 0-10.459-4.683-10.459-10.459s4.683-10.459 10.459-10.459c.84 0 1.661.099 2.445.291-4.599 1.098-8.01 5.237-8.01 10.168.001 4.931 3.412 9.07 8.01 10.168z" fill="#1f2426"/><path d="m300.744 323.121c-.784.192-1.605.291-2.445.291-5.776 0-10.459-4.683-10.459-10.459s4.683-10.459 10.459-10.459c.84 0 1.661.099 2.445.291-4.599 1.098-8.01 5.237-8.01 10.168s3.411 9.07 8.01 10.168z" fill="#1f2426"/><circle cx="249.703" cy="311.107" fill="#fff" r="4.481"/><path d="m492.15 355c-11.219 26.741-40.835 36.428-59.97 57.645-15.198 16.851-18.622 46.418-37.78 58.755-6.27 4.04-12.73 7.81-19.37 11.3v-70.61c0-31.75 25.74-57.48 57.49-57.48h52.95c2.26 0 4.49.13 6.68.39z" fill="#ef3d54"/><path d="m451.89 354.61c-31.75 0-57.49 25.74-57.49 57.49v59.3c-6.27 4.04-12.73 7.81-19.37 11.3v-70.6c0-31.75 25.74-57.49 57.48-57.49z" fill="#ca0051"/><path d="m472.94 391.97c-19.91 31.7-46.57 58.73-77.98 79.06v-35.22c0-24.21 19.63-43.84 43.84-43.84z" fill="#b7e445"/><path d="m469.4 391.97c-24.22 0-43.84 19.62-43.84 43.84v11.98c-9.58 8.48-19.81 16.25-30.6 23.24v-35.22c0-24.22 19.63-43.84 43.84-43.84z" fill="#7bc52a"/><path d="m512 256c0 24.48-3.43 48.15-9.85 70.56h-127.31v-63.99c0-34.76 28.18-62.94 62.94-62.94h42.43c9.6 0 18.69 2.15 26.83 6 3.25 16.28 4.96 33.13 4.96 50.37z" fill="#aa7a63"/><path d="m474.713 199.631c-34.761 0-62.939 28.182-62.939 62.943v63.985h-36.934v-63.985c0-34.761 28.178-62.943 62.939-62.943z" fill="#845c47"/><path d="m479.97 368.97v11.09c-1.29 2.33-2.62 4.64-3.98 6.93-1 1.67-2.01 3.33-3.05 4.979-4.99 7.94-10.4 15.59-16.2 22.9-5.01-.4-9.94-2.15-14.2-5.26-1.42-1.03-2.55-2.38-3.33-3.91-.78-1.52-1.2-3.23-1.2-4.99v-31.74h41.96z" fill="#f1c0a6"/><path d="m453.096 414.341c-3.73-.807-7.329-2.384-10.553-4.73h-.005c-2.844-2.074-4.523-5.382-4.523-8.901v-31.74h14.659v41.448c-.001 1.342.145 2.66.422 3.923z" fill="#e6ac94"/><path d="m401.065 326.557c0 9.618-7.026 17.593-16.226 19.073-1.006.163-2.04.248-3.095.248-10.673 0-19.321-8.648-19.321-19.321s8.648-19.321 19.321-19.321c1.055 0 2.089.085 3.095.248 9.2 1.481 16.226 9.455 16.226 19.073z" fill="#f1c0a6"/><path d="m401.065 326.557c0 9.618-7.026 17.593-16.226 19.073-1.671-6.077-2.564-12.472-2.564-19.073s.892-12.996 2.564-19.073c9.2 1.481 16.226 9.455 16.226 19.073z" fill="#e6ac94"/><circle cx="381.744" cy="326.557" fill="#e6ac94" r="6.905"/><path d="m508.41 298.91c-1.58 9.4-3.67 18.63-6.26 27.65-2.78 9.73-6.13 19.22-10 28.44-4.65 11.09-10.06 21.77-16.16 31.99-1.76.42-3.54.78-5.35 1.07-3.79.62-7.68.93-11.65.93-40.09 0-72.59-32.49-72.59-72.59v-21.53c8.93-.77 31.29-4.82 56.57-25.51 0 0 11.12 24.06 65.44 29.55z" fill="#f1c0a6"/><path d="m471.78 387.866c-.375.066-.755.131-1.136.192-3.791.62-7.681.934-11.651.934-40.092 0-72.591-32.495-72.591-72.591v-21.529c4.974-.432 14.11-1.877 25.597-6.649v28.178c0 35.728 25.799 65.417 59.781 71.465z" fill="#e6ac94"/><path d="m458.995 354.607c-6.078 0-12.157-1.523-17.698-4.569-1.563-.859-2.133-2.823-1.274-4.385.859-1.563 2.823-2.133 4.385-1.274 9.134 5.021 20.04 5.021 29.173 0 1.562-.859 3.526-.289 4.385 1.274s.289 3.526-1.274 4.385c-5.541 3.046-11.619 4.569-17.697 4.569z" fill="#d49985"/><path d="m467.229 332.911h-16.469c-1.962 0-3.552-1.59-3.552-3.552 0-1.962 1.59-3.552 3.552-3.552h16.469c1.962 0 3.552 1.59 3.552 3.552 0 1.962-1.59 3.552-3.552 3.552z" fill="#e6ac94"/><path d="m470.887 312.953c0 8.054 6.529 14.584 14.584 14.584 8.054 0 14.584-6.529 14.584-14.584z" fill="#e6ac94"/><circle cx="485.471" cy="312.953" fill="#343a3e" r="10.458"/><circle cx="489.829" cy="311.107" fill="#fff" r="4.481"/><path d="m417.934 312.953c0 8.054 6.529 14.584 14.584 14.584 8.054 0 14.584-6.529 14.584-14.584z" fill="#e6ac94"/><circle cx="432.518" cy="312.953" fill="#343a3e" r="10.458"/><path d="m434.963 323.121c-.784.192-1.605.291-2.445.291-5.776 0-10.459-4.683-10.459-10.459s4.683-10.459 10.459-10.459c.84 0 1.661.099 2.445.291-4.599 1.098-8.01 5.237-8.01 10.168.001 4.931 3.412 9.07 8.01 10.168z" fill="#1f2426"/><path d="m487.917 323.121c-.784.192-1.605.291-2.445.291-5.776 0-10.459-4.683-10.459-10.459s4.683-10.459 10.459-10.459c.84 0 1.661.099 2.445.291-4.599 1.098-8.01 5.237-8.01 10.168s3.411 9.07 8.01 10.168z" fill="#1f2426"/><circle cx="436.876" cy="311.107" fill="#fff" r="4.481"/><path d="m15.618 344.244c-4.362-11.879-7.869-24.169-10.446-36.8.879-.122 1.77-.208 2.683-.208 1.055 0 2.089.085 3.095.248 9.2 1.48 16.226 9.455 16.226 19.073 0 7.908-4.755 14.697-11.558 17.687z" fill="#f1c0a6"/><g fill="#e6ac94"><path d="m27.176 326.557c0-9.618-7.026-17.592-16.226-19.073-1.264 4.597-2.081 9.376-2.405 14.289 2.024 7.634 4.379 15.133 7.073 22.47 6.803-2.989 11.558-9.778 11.558-17.686z"/><path d="m14.76 326.557c0-3.771-3.024-6.831-6.779-6.899 1.095 4.279 2.297 8.515 3.604 12.704 1.909-1.228 3.175-3.367 3.175-5.805z"/><path d="m97.434 387.866c-.375.066-.755.131-1.136.192-3.791.62-7.681.934-11.651.934-40.092 0-72.591-32.495-72.591-72.591v-21.529c4.974-.432 14.11-1.877 25.597-6.649v28.178c0 35.728 25.799 65.417 59.781 71.465z"/></g></g></svg>