<svg width="24" height="24" viewBox="0 0 24 24" fill="none" xmlns="http://www.w3.org/2000/svg">
<g clip-path="url(#clip0)">
<path d="M19 9.92308C19 15.4615 12 21 12 21C12 21 5 15.4615 5 9.92308C5 8.08696 5.7375 6.32605 7.05025 5.02772C8.36301 3.72939 10.1435 3 12 3C13.8565 3 15.637 3.72939 16.9497 5.02772C18.2625 6.32605 19 8.08696 19 9.92308V9.92308Z" stroke="#2B2E33" stroke-width="2" stroke-linecap="round" stroke-linejoin="round"/>
<path d="M12 12C13.3807 12 14.5 10.8807 14.5 9.5C14.5 8.11929 13.3807 7 12 7C10.6193 7 9.5 8.11929 9.5 9.5C9.5 10.8807 10.6193 12 12 12Z" fill="#2B2E33"/>
</g>
<defs>
<clipPath id="clip0">
<path d="M0 0H24V24H0V0Z" fill="white"/>
</clipPath>
</defs>
</svg>
