<svg width="24" height="25" viewBox="0 0 24 25" fill="none" xmlns="http://www.w3.org/2000/svg">
<path d="M6 10.0684C4.9 10.0684 4 10.9745 4 12.082C4 13.1896 4.9 14.0957 6 14.0957C7.1 14.0957 8 13.1896 8 12.082C8 10.9745 7.1 10.0684 6 10.0684ZM18 10.0684C16.9 10.0684 16 10.9745 16 12.082C16 13.1896 16.9 14.0957 18 14.0957C19.1 14.0957 20 13.1896 20 12.082C20 10.9745 19.1 10.0684 18 10.0684ZM12 10.0684C10.9 10.0684 10 10.9745 10 12.082C10 13.1896 10.9 14.0957 12 14.0957C13.1 14.0957 14 13.1896 14 12.082C14 10.9745 13.1 10.0684 12 10.0684Z" fill="#2B2E33"/>
</svg>
