<svg width="20" height="20" viewBox="0 0 20 20" fill="none" xmlns="http://www.w3.org/2000/svg">
<path fill-rule="evenodd" clip-rule="evenodd" d="M4 18H16C16.5523 18 17 17.5523 17 17V6.6098C17 6.35346 16.9016 6.1069 16.725 5.92105L13.2957 2.31125C13.1069 2.11252 12.8448 2 12.5707 2H4C3.44772 2 3 2.44772 3 3V17C3 17.5523 3.44772 18 4 18ZM12 6.8V3.48284C12 3.30466 12.2154 3.21543 12.3414 3.34142L15.6586 6.65858C15.7846 6.78457 15.6953 7 15.5172 7H12.2C12.0895 7 12 6.91046 12 6.8ZM9.91842 8.36714C9.64187 8.37977 9.36532 8.3924 9.08877 8.40746C8.8863 9.30054 8.68046 10.1936 8.47463 11.0865C8.33335 11.6994 8.19207 12.3124 8.0519 12.9252C7.90806 11.9627 7.7359 11.004 7.56365 10.0447C7.47302 9.54004 7.38237 9.03521 7.2958 8.52959C6.87863 8.54341 6.45912 8.55962 6.04214 8.57804C6.26093 9.75371 6.51248 10.9232 6.76405 12.0928C6.94705 12.9436 7.13006 13.7945 7.30048 14.6478C7.77151 14.6778 8.24214 14.7054 8.71043 14.7285C8.82049 14.2306 8.93552 13.7333 9.05059 13.2358C9.27725 12.256 9.50405 11.2754 9.69326 10.2888C9.8738 11.2409 10.0882 12.1869 10.3026 13.1327C10.433 13.7079 10.5633 14.283 10.686 14.8594C10.8648 14.8475 11.061 14.8687 11.2578 14.89C11.5927 14.9262 11.9295 14.9626 12.1861 14.8364C12.5696 13.4251 12.9047 12.0007 13.2397 10.5763C13.4311 9.76275 13.6224 8.94922 13.8228 8.13815C13.3374 8.16578 12.8496 8.1912 12.3618 8.20723C12.2852 8.62131 12.208 9.03525 12.1309 9.44915C11.9106 10.6302 11.6904 11.811 11.4862 12.9943C11.135 11.4469 10.8033 9.89515 10.479 8.34078C10.2922 8.35006 10.1053 8.3586 9.91842 8.36714Z" fill="#2A5699"/>
</svg>
