<svg width="20" height="20" viewBox="0 0 20 20" fill="none" xmlns="http://www.w3.org/2000/svg">
<path fill-rule="evenodd" clip-rule="evenodd" d="M16 18H4C3.44772 18 3 17.5523 3 17V3C3 2.44772 3.44772 2 4 2H12.5707C12.8448 2 13.1069 2.11252 13.2957 2.31125L16.725 5.92105C16.9016 6.1069 17 6.35346 17 6.6098V17C17 17.5523 16.5523 18 16 18ZM12 3.48284V6.8C12 6.91046 12.0895 7 12.2 7H15.5172C15.6953 7 15.7846 6.78457 15.6586 6.65858L12.3414 3.34142C12.2154 3.21543 12 3.30466 12 3.48284Z" fill="#326ED1"/>
<mask id="mask0" mask-type="alpha" maskUnits="userSpaceOnUse" x="3" y="2" width="14" height="16">
<path d="M4 18H16C16.5523 18 17 17.5523 17 17V6.6098C17 6.35346 16.9016 6.1069 16.725 5.92105L13.2957 2.31125C13.1069 2.11252 12.8448 2 12.5707 2H4C3.44772 2 3 2.44772 3 3V17C3 17.5523 3.44772 18 4 18Z" fill="#2A5699"/>
</mask>
<g mask="url(#mask0)">
<path d="M7.86508 15.144L4.75269 12.0344C4.71807 11.9993 4.67647 11.9719 4.63058 11.9538C4.58469 11.9358 4.53552 11.9276 4.48627 11.9298C4.43716 11.9317 4.38898 11.9437 4.34474 11.9651C4.30049 11.9865 4.26114 12.0168 4.22913 12.0541L2.08635 14.554C2.04177 14.6058 2.01301 14.6694 2.00348 14.7371C1.99396 14.8048 2.00407 14.8738 2.03261 14.9359C2.06116 14.9981 2.10694 15.0507 2.16451 15.0876C2.22209 15.1244 2.28904 15.144 2.35741 15.144H7.86508Z" fill="#4DA34D"/>
<path d="M11.9318 14.5769L9.07474 10.6484C9.0422 10.6035 8.99965 10.5668 8.95046 10.5412C8.90128 10.5156 8.8468 10.5018 8.79136 10.5009C8.73591 10.5 8.68102 10.512 8.63102 10.536C8.58103 10.56 8.53731 10.5953 8.50333 10.6391L4.99738 15.144H11.6429C11.7087 15.144 11.7733 15.1258 11.8295 15.0914C11.8857 15.057 11.9312 15.0077 11.9611 14.949C11.991 14.8903 12.0041 14.8245 11.9989 14.7588C11.9938 14.6931 11.9705 14.6302 11.9318 14.5769Z" fill="#72C472"/>
<path d="M6.5 8C7.32843 8 8 7.32843 8 6.5C8 5.67157 7.32843 5 6.5 5C5.67157 5 5 5.67157 5 6.5C5 7.32843 5.67157 8 6.5 8Z" fill="#EFD358"/>
</g>
<path d="M12 6.80003V3.48287C12 3.30469 12.2154 3.21546 12.3414 3.34145L15.6586 6.65861C15.7846 6.7846 15.6953 7.00003 15.5172 7.00003H12.2C12.0895 7.00003 12 6.91049 12 6.80003Z" fill="white"/>
</svg>
