<svg width="20" height="20" viewBox="0 0 20 20" fill="none" xmlns="http://www.w3.org/2000/svg">
<path fill-rule="evenodd" clip-rule="evenodd" d="M4 18H16C16.5523 18 17 17.5523 17 17V6.6098C17 6.35346 16.9016 6.1069 16.725 5.92105L13.2957 2.31125C13.1069 2.11252 12.8448 2 12.5707 2H4C3.44772 2 3 2.44772 3 3V17C3 17.5523 3.44772 18 4 18ZM12 6.8V3.48284C12 3.30466 12.2154 3.21543 12.3414 3.34142L15.6586 6.65858C15.7846 6.78457 15.6953 7 15.5172 7H12.2C12.0895 7 12 6.91046 12 6.8ZM13.1675 12.9376C14.0782 12.9376 14.1675 11.9349 13.7925 11.5616C13.3568 11.1349 12.1139 11.2523 11.4925 11.3305C10.8782 10.9571 10.4675 10.4416 10.1782 9.68425C10.1823 9.66755 10.1864 9.65059 10.1906 9.63339C10.3301 9.06124 10.534 8.22472 10.3711 7.69314C10.2211 6.76159 9.02107 6.85403 8.84964 7.48336C8.6925 8.05581 8.83535 8.85225 9.09964 9.86914C8.7425 10.7189 8.21035 11.8603 7.83535 12.5145C7.12107 12.8807 6.15678 13.446 6.01393 14.1571C5.89607 14.7189 6.9425 16.1198 8.73178 13.0478C8.87854 12.9995 9.0277 12.9492 9.17821 12.8985C9.84814 12.6726 10.5447 12.4377 11.1746 12.3331C11.8496 12.6958 12.6389 12.9376 13.1675 12.9376ZM7.80321 13.0834C7.12464 14.1607 6.7175 14.3527 6.7175 14.3278C6.87416 13.9088 7.40867 13.4346 7.68921 13.1857C7.73483 13.1452 7.77374 13.1107 7.80321 13.0834ZM9.63178 7.55092C9.5425 7.55092 9.53893 8.50736 9.69607 9.00159C9.87107 8.69225 9.89607 7.55092 9.63178 7.55092ZM9.18756 12.2367C9.04037 12.297 8.89805 12.3552 8.76035 12.4078C9.10678 11.8069 9.40321 11.0923 9.6425 10.4629C9.93892 10.9998 10.3175 11.43 10.7175 11.7251C10.1548 11.841 9.64738 12.0486 9.18756 12.2367ZM13.4604 12.23C13.5889 12.1447 13.3818 11.8603 12.1282 11.9527C13.2818 12.4434 13.4604 12.23 13.4604 12.23Z" fill="#FF5722"/>
</svg>
