<svg width="20" height="20" viewBox="0 0 20 20" fill="none" xmlns="http://www.w3.org/2000/svg">
<path fill-rule="evenodd" clip-rule="evenodd" d="M4 18H16C16.5523 18 17 17.5523 17 17V6.6098C17 6.35346 16.9016 6.1069 16.725 5.92105L13.2957 2.31125C13.1069 2.11252 12.8448 2 12.5707 2H4C3.44772 2 3 2.44772 3 3V17C3 17.5523 3.44772 18 4 18ZM12 6.8V3.48284C12 3.30466 12.2154 3.21543 12.3414 3.34142L15.6586 6.65858C15.7846 6.78457 15.6953 7 15.5172 7H12.2C12.0895 7 12 6.91046 12 6.8ZM9.35676 11.389C9.31674 11.3855 9.27654 11.3819 9.23625 11.3787V9.39936C9.65495 9.33121 10.0717 9.27785 10.3943 9.65208C10.6438 9.94152 10.6619 10.6298 10.4468 11.0064C10.1868 11.4627 9.78214 11.4268 9.35676 11.389ZM8.02703 14.9223H9.20322V12.6886C9.34327 12.6768 9.48057 12.6705 9.6151 12.6643C9.90424 12.6511 10.1807 12.6384 10.4445 12.5724C11.2204 12.3784 11.7127 11.8265 11.8906 11.0421C12.0901 10.1614 12.09 9.27843 11.4221 8.5696C11.2476 8.38433 10.9731 8.20369 10.7366 8.19214C10.0823 8.16021 9.42625 8.16538 8.76791 8.17057C8.52128 8.17252 8.27433 8.17447 8.02703 8.17447V14.9223Z" fill="#CB4A32"/>
</svg>
