<svg width="20" height="20" viewBox="0 0 20 20" fill="none" xmlns="http://www.w3.org/2000/svg">
<path fill-rule="evenodd" clip-rule="evenodd" d="M3 17C3 17.5523 3.44772 18 4 18H16C16.5523 18 17 17.5523 17 17V6.6098C17 6.35346 16.9016 6.1069 16.725 5.92105L13.2957 2.31125C13.1069 2.11252 12.8448 2 12.5707 2H4C3.44772 2 3 2.44772 3 3V17ZM12 6.8V3.48284C12 3.30466 12.2154 3.21543 12.3414 3.34142L15.6586 6.65858C15.7846 6.78457 15.6953 7 15.5172 7H12.2C12.0895 7 12 6.91046 12 6.8ZM7.8 12.8C7.8 14.016 8.784 15 10 15C11.216 15 12.2 14.016 12.2 12.8V9H11.4V12.8C11.4 13.572 10.772 14.2 10 14.2C9.228 14.2 8.6 13.572 8.6 12.8V8.6C8.6 8.16 8.96 7.8 9.4 7.8C9.84 7.8 10.2 8.16 10.2 8.6V12.036C10.2 12.256 9.8 12.256 9.8 12.036V9H9V12C9 12.552 9.448 13 10 13C10.552 13 11 12.552 11 12V8.6C11 7.716 10.284 7 9.4 7C8.516 7 7.8 7.716 7.8 8.6V12.8Z" fill="#ACB3BF"/>
</svg>
