<svg width="20" height="20" viewBox="0 0 20 20" fill="none" xmlns="http://www.w3.org/2000/svg">
<path fill-rule="evenodd" clip-rule="evenodd" d="M4 18H16C16.5523 18 17 17.5523 17 17V6.6098C17 6.35346 16.9016 6.1069 16.725 5.92105L13.2957 2.31125C13.1069 2.11252 12.8448 2 12.5707 2H4C3.44772 2 3 2.44772 3 3V17C3 17.5523 3.44772 18 4 18ZM12 6.8V3.48284C12 3.30466 12.2154 3.21543 12.3414 3.34142L15.6586 6.65858C15.7846 6.78457 15.6953 7 15.5172 7H12.2C12.0895 7 12 6.91046 12 6.8ZM8.55387 9.00042C8.59175 9.00264 8.6283 9.01517 8.65958 9.03665L11.9929 11.3283C12.0208 11.3475 12.0435 11.3731 12.0593 11.403C12.075 11.4329 12.0832 11.4662 12.0832 11.5C12.0832 11.5338 12.075 11.5671 12.0593 11.597C12.0435 11.6269 12.0208 11.6525 11.9929 11.6716L8.65958 13.9633C8.62488 13.9872 8.58377 14 8.54166 14C8.50794 14 8.47473 13.9917 8.445 13.9758C8.41137 13.9582 8.3832 13.9317 8.36352 13.8993C8.34384 13.8668 8.3334 13.8296 8.33333 13.7916V9.20831C8.33335 9.17037 8.34372 9.13315 8.36334 9.10068C8.38296 9.0682 8.41108 9.0417 8.44465 9.02403C8.47823 9.00636 8.516 8.9982 8.55387 9.00042Z" fill="#ACB3BF"/>
</svg>
