<svg width="20" height="20" viewBox="0 0 20 20" fill="none" xmlns="http://www.w3.org/2000/svg">
<path fill-rule="evenodd" clip-rule="evenodd" d="M4 18H16C16.5523 18 17 17.5523 17 17V6.6098C17 6.35346 16.9016 6.1069 16.725 5.92105L13.2957 2.31125C13.1069 2.11252 12.8448 2 12.5707 2H4C3.44772 2 3 2.44772 3 3V17C3 17.5523 3.44772 18 4 18ZM12 6.8V3.48284C12 3.30466 12.2154 3.21543 12.3414 3.34142L15.6586 6.65858C15.7846 6.78457 15.6953 7 15.5172 7H12.2C12.0895 7 12 6.91046 12 6.8ZM12.3728 8C11.9 8.02283 11.427 8.052 10.9562 8.08533C10.85 8.34356 10.7385 8.59969 10.627 8.85579C10.3688 9.44898 10.1106 10.042 9.91867 10.6603C9.72863 10.0413 9.49304 9.43962 9.2575 8.83805C9.17512 8.62765 9.09275 8.41727 9.01233 8.20617C8.554 8.23117 8.09567 8.25817 7.63733 8.28533C7.83369 8.71867 8.03521 9.14958 8.23672 9.58046C8.53124 10.2102 8.82573 10.8399 9.104 11.477C8.74489 12.1547 8.40074 12.8385 8.05667 13.5222C7.87186 13.8895 7.68707 14.2567 7.5 14.6228C7.95617 14.6417 8.4125 14.6603 8.86883 14.6667C8.99753 14.3381 9.1387 14.0145 9.27987 13.6908C9.49503 13.1976 9.71019 12.7044 9.88117 12.1937C10.0584 12.827 10.3217 13.4269 10.585 14.0266C10.6993 14.287 10.8136 14.5473 10.9208 14.8103C11.422 14.8454 11.9233 14.8774 12.4248 14.9062C12.1561 14.3609 11.8851 13.8174 11.6142 13.2741C11.3055 12.6549 10.9969 12.0359 10.6917 11.4145C11.257 10.2788 11.8174 9.14062 12.3728 8Z" fill="#207245"/>
</svg>
